<?xml version="1.0" encoding="UTF-8" standalone="no"?>
<!-- Created with Inkscape (http://www.inkscape.org/) -->

<svg
   xmlns:dc="http://purl.org/dc/elements/1.1/"
   xmlns:cc="http://creativecommons.org/ns#"
   xmlns:rdf="http://www.w3.org/1999/02/22-rdf-syntax-ns#"
   xmlns:svg="http://www.w3.org/2000/svg"
   xmlns="http://www.w3.org/2000/svg"
   xmlns:sodipodi="http://sodipodi.sourceforge.net/DTD/sodipodi-0.dtd"
   xmlns:inkscape="http://www.inkscape.org/namespaces/inkscape"
   width="600mm"
   height="300mm"
   viewBox="0 0 600 300"
   version="1.1"
   id="svg5638"
   inkscape:version="0.92.4 (5da689c313, 2019-01-14)"
   sodipodi:docname="piece5.svg">
  <defs
     id="defs5632" />
  <sodipodi:namedview
     id="base"
     pagecolor="#ffffff"
     bordercolor="#666666"
     borderopacity="1.0"
     inkscape:pageopacity="0.0"
     inkscape:pageshadow="2"
     inkscape:zoom="0.10318527"
     inkscape:cx="-3515.4169"
     inkscape:cy="3672.8317"
     inkscape:document-units="mm"
     inkscape:current-layer="layer1"
     showgrid="false"
     inkscape:window-width="1366"
     inkscape:window-height="705"
     inkscape:window-x="-8"
     inkscape:window-y="-8"
     inkscape:window-maximized="1" />
  <metadata
     id="metadata5635">
    <rdf:RDF>
      <cc:Work
         rdf:about="">
        <dc:format>image/svg+xml</dc:format>
        <dc:type
           rdf:resource="http://purl.org/dc/dcmitype/StillImage" />
        <dc:title />
      </cc:Work>
    </rdf:RDF>
  </metadata>
  <g
     inkscape:label="Calque 1"
     inkscape:groupmode="layer"
     id="layer1"
     transform="translate(0,3)">
    <path
       inkscape:connector-curvature="0"
       d="m 17.131557,31.260706 v 23.437999 h -5 v 34.375 h 5 v 34.375005 h -5 v 34.375 h 5 v 23.437 h 20.312999 v 5 h 34.375 v -5 h 34.374994 v 5 h 34.37501 v -5 h 34.375 v 5 h 34.375 v -5 h 34.375 v 5 h 34.37499 v -5 h 34.37501 v 5 h 34.37499 v -5 h 20.31201 v -23.437 h 4.99999 v -34.375 h -4.99999 V 89.073705 h 4.99999 v -34.375 h -4.99999 V 31.260706 h -20.31201 v -5 h -34.37499 v 5 h -34.37501 v -5 h -34.37499 v 5 h -34.375 v -5 h -34.375 v 5 h -34.375 v -5 h -34.37501 v 5 H 71.819556 v -5 h -34.375 v 5 z"
       id="bottom_outsideCutPath"
       style="vector-effect:non-scaling-stroke;fill:none;stroke:#ff0000;stroke-width:0.30000001;stroke-miterlimit:4;stroke-dasharray:none" />
    <path
       inkscape:connector-curvature="0"
       d="m 571.35917,33.434119 h -28.438 v -5.000001 h -34.37499 v 5.000001 h -34.37501 v -5.000001 h -34.375 v 5.000001 h -28.437 V 56.87211 h 5 v 34.375011 h -5 v 34.374999 h 5 v 34.375 h -5 v 23.437 h 28.437 v 5 h 34.375 v -5 l 34.37546,2.1e-4 -5.3e-4,4.99979 h 34.37545 l -5.3e-4,-4.99979 h 23.43846 l -5.2e-4,-23.4372 v 0 l 5.2e-4,-34.375 h 4.99954 V 91.247129 h -4.99985 V 56.872121 h 5 z"
       id="left_outsideCutPath-3"
       style="vector-effect:non-scaling-stroke;fill:none;stroke:#ff0000;stroke-width:0.30000001;stroke-miterlimit:4;stroke-dasharray:none"
       sodipodi:nodetypes="ccccccccccccccccccccccccccccccccccccc" />
  </g>
</svg>
